# xmcd
#
# Track frame offsets:
#	150
#	16661
#	26331
#	36565
#	46702
#	55515
#	67073
#	78439
#	89231
#	100306
#	109788
#	121233
#	140081
#	152014
#	170478
#	181879
#	195076
#	208831
#	223096
#	240034
#	252258
#
# Disc length: 3507 seconds
#
# Revision: 1
# Processed by: cddbd v1.4PL0 Copyright (c) Steve Scherf et al.
# Submitted via: audiograbber 1.81.02
#
DISCID=190db115
DTITLE=Various Artist - Bluestown Story Volume 1
DYEAR=1981
DGENRE=Blues
TTITLE0=Alabama Hibert Watson - I Gotta Boogie
TTITLE1=Alabama Hibert Watson - Short Haired Woman
TTITLE2=Alabama Hibert Watson - Bring Me My Shotgun - Take 1
TTITLE3=Alabama Hibert Watson - Bring Me My Shotgun - Take 2
TTITLE4=Alabama Hibert Watson - Boogie Like You Wanna
TTITLE5=Alabama Hibert Watson - Mean Old Train
TTITLE6=Alabama Hibert Watson and M. Morganfield - I'm Ready
TTITLE7=Alabama Hibert Watson - Cost Time
TTITLE8=Alabama Hibert Watson - I Wanna Boogie
TTITLE9=Alabama Hibert Watson and Skippy White and John Belmonte - My Baby Left Me
TTITLE10=Alabama Hibert Watson - Mean Old Train
TTITLE11=Guitar Nubbit (Al Hankerson) - Meletonia
TTITLE12=Guitar Nubbit (Al Hankerson) - I Feel So Relaxed
TTITLE13=Guitar Nubbit (Al Hankerson) - Georgia Chain Gang
TTITLE14=Guitar Nubbit (Al Hankerson) - I've Got The Blues
TTITLE15=Guitar Nubbit (Al Hankerson) - New Orleans
TTITLE16=Guitar Nubbit (Al Hankerson) - Evil Woman Blues
TTITLE17=Guitar Nubbit (Al Hankerson) - Crying Blues
TTITLE18=Guitar Nubbit (Al Hankerson) - Hard Road
TTITLE19=Guitar Nubbit (Al Hankerson) - Big Leg Woman
TTITLE20=Guitar Nubbit (Al Hankerson) - Laura
EXTD=
EXTT0=
EXTT1=
EXTT2=
EXTT3=
EXTT4=
EXTT5=
EXTT6=
EXTT7=
EXTT8=
EXTT9=
EXTT10=
EXTT11=
EXTT12=
EXTT13=
EXTT14=
EXTT15=
EXTT16=
EXTT17=
EXTT18=
EXTT19=
EXTT20=
PLAYORDER=
